<svg width="1440" height="761" viewBox="0 0 1440 761" fill="none" xmlns="http://www.w3.org/2000/svg">
<path fill-rule="evenodd" clip-rule="evenodd" d="M0 0.98551C40.8163 8.01095 85.2711 12.6905 132.009 17.6103C142.608 18.726 153.324 19.854 164.142 21.0246C222.673 27.3581 284.196 34.9377 346.262 48.5389C470.386 75.7397 596.666 127.021 705.459 240.564C814.445 354.31 945.703 398.582 1075.9 416.962C1140.99 426.152 1205.83 428.87 1267.49 430.561C1278.1 430.852 1288.62 431.112 1299.03 431.37C1349.11 432.611 1396.65 433.789 1440.04 437.99L1440.13 436.995C1396.71 432.789 1349.12 431.611 1299.05 430.37L1299.04 430.37C1288.64 430.112 1278.12 429.852 1267.52 429.561C1205.87 427.87 1141.08 425.153 1076.04 415.972C945.975 397.611 814.959 353.401 706.181 239.873C597.209 126.142 470.726 74.7904 346.476 47.5621C284.355 33.9487 222.787 26.3646 164.249 20.0304C153.424 18.859 142.702 17.7304 132.1 16.6143C85.3642 11.6946 40.9504 7.01933 0.169629 0L0 0.98551ZM132.009 34.6103C85.2711 29.6905 40.8163 25.011 0 17.9855L0.169629 17C40.9504 24.0193 85.3642 28.6946 132.1 33.6143C142.702 34.7304 153.424 35.859 164.249 37.0304C222.787 43.3646 284.355 50.9487 346.476 64.5621C470.726 91.7904 597.209 143.142 706.181 256.873C814.959 370.401 945.975 414.611 1076.04 432.972C1141.08 442.153 1205.87 444.87 1267.52 446.561C1278.12 446.852 1288.64 447.112 1299.04 447.37L1299.05 447.37C1349.12 448.611 1396.71 449.789 1440.13 453.995L1440.04 454.99C1396.65 450.789 1349.11 449.611 1299.03 448.37C1288.62 448.112 1278.1 447.852 1267.49 447.561C1205.83 445.87 1140.99 443.152 1075.9 433.962C945.703 415.582 814.445 371.31 705.459 257.564C596.666 144.021 470.386 92.7397 346.262 65.5389C284.196 51.9377 222.673 44.3581 164.142 38.0246C153.324 36.854 142.608 35.726 132.009 34.6103ZM0 34.9855C40.8163 42.011 85.2711 46.6905 132.009 51.6103C142.608 52.726 153.324 53.854 164.142 55.0246C222.673 61.3581 284.196 68.9377 346.262 82.5389C470.386 109.74 596.666 161.021 705.459 274.564C814.445 388.31 945.703 432.582 1075.9 450.962C1140.99 460.152 1205.83 462.87 1267.49 464.561C1278.1 464.852 1288.62 465.112 1299.03 465.37C1349.11 466.611 1396.65 467.789 1440.04 471.99L1440.13 470.995C1396.71 466.789 1349.12 465.611 1299.05 464.37L1299.04 464.37C1288.64 464.112 1278.12 463.852 1267.52 463.561C1205.87 461.87 1141.08 459.153 1076.04 449.972C945.975 431.611 814.959 387.401 706.181 273.873C597.209 160.142 470.726 108.79 346.476 81.5621C284.355 67.9487 222.787 60.3646 164.249 54.0304C153.424 52.859 142.702 51.7304 132.1 50.6143C85.3642 45.6946 40.9504 41.0193 0.169629 34L0 34.9855ZM132.009 68.6103C85.2711 63.6905 40.8163 59.011 0 51.9855L0.169629 51C40.9504 58.0193 85.3642 62.6946 132.1 67.6143C142.702 68.7304 153.424 69.859 164.249 71.0304C222.787 77.3646 284.355 84.9487 346.476 98.5621C470.726 125.79 597.209 177.142 706.181 290.873C814.959 404.401 945.975 448.611 1076.04 466.972C1141.08 476.153 1205.87 478.87 1267.52 480.561C1278.12 480.852 1288.64 481.112 1299.04 481.37L1299.05 481.37C1349.12 482.611 1396.71 483.789 1440.13 487.995L1440.04 488.99C1396.65 484.789 1349.11 483.611 1299.03 482.37C1288.62 482.112 1278.1 481.852 1267.49 481.561C1205.83 479.87 1140.99 477.152 1075.9 467.962C945.703 449.582 814.445 405.31 705.459 291.564C596.666 178.021 470.386 126.74 346.262 99.5389C284.196 85.9377 222.673 78.3581 164.142 72.0246C153.324 70.854 142.608 69.726 132.009 68.6103ZM132.008 85.6102L132.009 85.6103C142.608 86.726 153.324 87.854 164.142 89.0246C222.673 95.3581 284.196 102.938 346.262 116.539C470.386 143.74 596.666 195.021 705.459 308.564C814.445 422.31 945.703 466.582 1075.9 484.962C1140.99 494.152 1205.83 496.87 1267.49 498.561C1278.1 498.852 1288.62 499.112 1299.03 499.37C1349.11 500.611 1396.65 501.789 1440.04 505.99L1440.13 504.995C1396.71 500.789 1349.12 499.611 1299.05 498.37C1288.64 498.112 1278.12 497.852 1267.52 497.561C1205.87 495.87 1141.08 493.153 1076.04 483.972C945.975 465.611 814.959 421.401 706.181 307.873C597.209 194.142 470.726 142.79 346.476 115.562C284.355 101.949 222.787 94.3646 164.249 88.0304C153.425 86.8592 142.706 85.7307 132.105 84.6149L132.1 84.6143C85.3642 79.6946 40.9504 75.0193 0.169629 68L0 68.9855C40.8162 76.0109 85.2707 80.6904 132.008 85.6102ZM132.009 102.61L132.008 102.61C85.2707 97.6904 40.8162 93.0109 0 85.9855L0.169629 85C40.9504 92.0193 85.3642 96.6946 132.1 101.614L132.105 101.615C142.706 102.731 153.425 103.859 164.249 105.03C222.787 111.365 284.355 118.949 346.476 132.562C470.726 159.79 597.209 211.142 706.181 324.873C814.959 438.401 945.975 482.611 1076.04 500.972C1141.08 510.153 1205.87 512.87 1267.52 514.561C1278.12 514.852 1288.64 515.112 1299.05 515.37C1349.12 516.611 1396.71 517.789 1440.13 521.995L1440.04 522.99C1396.65 518.789 1349.11 517.611 1299.03 516.37C1288.62 516.112 1278.1 515.852 1267.49 515.561C1205.83 513.87 1140.99 511.152 1075.9 501.962C945.703 483.582 814.445 439.31 705.459 325.564C596.666 212.021 470.386 160.74 346.262 133.539C284.196 119.938 222.673 112.358 164.142 106.025C153.324 104.854 142.608 103.726 132.009 102.61ZM132.008 119.61L132.009 119.61C142.608 120.726 153.324 121.854 164.142 123.025C222.673 129.358 284.196 136.938 346.262 150.539C470.386 177.74 596.666 229.021 705.459 342.564C814.445 456.31 945.703 500.582 1075.9 518.962C1140.99 528.152 1205.83 530.87 1267.49 532.561C1278.1 532.852 1288.62 533.112 1299.03 533.37C1349.11 534.611 1396.65 535.789 1440.04 539.99L1440.13 538.995C1396.71 534.789 1349.12 533.611 1299.05 532.37C1288.64 532.112 1278.12 531.852 1267.52 531.561C1205.87 529.87 1141.08 527.153 1076.04 517.972C945.975 499.611 814.959 455.401 706.181 341.873C597.209 228.142 470.726 176.79 346.476 149.562C284.355 135.949 222.787 128.365 164.249 122.03C153.425 120.859 142.706 119.731 132.105 118.615L132.1 118.614C85.3642 113.695 40.9504 109.019 0.169629 102L0 102.986C40.8162 110.011 85.2707 114.69 132.008 119.61ZM132.009 136.61L132.008 136.61C85.2707 131.69 40.8162 127.011 0 119.986L0.169629 119C40.9504 126.019 85.3642 130.695 132.1 135.614L132.105 135.615C142.706 136.731 153.425 137.859 164.249 139.03C222.787 145.365 284.355 152.949 346.476 166.562C470.726 193.79 597.209 245.142 706.181 358.873C814.959 472.401 945.975 516.611 1076.04 534.972C1141.08 544.153 1205.87 546.87 1267.52 548.561C1278.12 548.852 1288.64 549.112 1299.05 549.37C1349.12 550.611 1396.71 551.789 1440.13 555.995L1440.04 556.99C1396.65 552.789 1349.11 551.611 1299.03 550.37C1288.62 550.112 1278.1 549.852 1267.49 549.561C1205.83 547.87 1140.99 545.152 1075.9 535.962C945.703 517.582 814.445 473.31 705.459 359.564C596.666 246.021 470.386 194.74 346.262 167.539C284.196 153.938 222.673 146.358 164.142 140.025C153.324 138.854 142.608 137.726 132.009 136.61ZM132.009 153.61H132.009C142.608 154.726 153.324 155.854 164.142 157.025C222.673 163.358 284.196 170.938 346.262 184.539C470.386 211.74 596.666 263.021 705.459 376.564C814.445 490.31 945.703 534.582 1075.9 552.962C1140.99 562.152 1205.83 564.87 1267.49 566.561C1278.1 566.852 1288.62 567.112 1299.03 567.37C1349.11 568.611 1396.65 569.789 1440.04 573.99L1440.13 572.995C1396.71 568.789 1349.12 567.611 1299.05 566.37C1288.64 566.112 1278.12 565.852 1267.52 565.561C1205.87 563.87 1141.08 561.153 1076.04 551.972C945.975 533.611 814.959 489.401 706.181 375.873C597.209 262.142 470.726 210.79 346.476 183.562C284.355 169.949 222.787 162.365 164.249 156.03C153.425 154.859 142.706 153.731 132.105 152.615L132.1 152.614C85.3642 147.695 40.9504 143.019 0.169629 136L0 136.986C40.8163 144.011 85.271 148.69 132.009 153.61ZM132.009 170.61H132.009C85.271 165.69 40.8163 161.011 0 153.986L0.169629 153C40.9504 160.019 85.3642 164.695 132.1 169.614L132.105 169.615C142.706 170.731 153.425 171.859 164.249 173.03C222.787 179.365 284.355 186.949 346.476 200.562C470.726 227.79 597.209 279.142 706.181 392.873C814.959 506.401 945.975 550.611 1076.04 568.972C1141.08 578.153 1205.87 580.87 1267.52 582.561C1278.12 582.852 1288.64 583.112 1299.05 583.37C1349.12 584.611 1396.71 585.789 1440.13 589.995L1440.04 590.99C1396.65 586.789 1349.11 585.611 1299.03 584.37C1288.62 584.112 1278.1 583.852 1267.49 583.561C1205.83 581.87 1140.99 579.152 1075.9 569.962C945.703 551.582 814.445 507.31 705.459 393.564C596.666 280.021 470.386 228.74 346.262 201.539C284.196 187.938 222.673 180.358 164.142 174.025C153.324 172.854 142.608 171.726 132.009 170.61ZM132.009 187.61H132.009C142.608 188.726 153.324 189.854 164.142 191.025C222.673 197.358 284.196 204.938 346.262 218.539C470.386 245.74 596.666 297.021 705.459 410.564C814.445 524.31 945.703 568.582 1075.9 586.962C1140.99 596.152 1205.83 598.87 1267.49 600.561C1278.1 600.852 1288.62 601.112 1299.03 601.37C1349.11 602.611 1396.65 603.789 1440.04 607.99L1440.13 606.995C1396.71 602.789 1349.12 601.611 1299.05 600.37C1288.64 600.112 1278.12 599.852 1267.52 599.561C1205.87 597.87 1141.08 595.153 1076.04 585.972C945.975 567.611 814.959 523.401 706.181 409.873C597.209 296.142 470.726 244.79 346.476 217.562C284.355 203.949 222.787 196.365 164.249 190.03C153.425 188.859 142.706 187.731 132.105 186.615L132.1 186.614C85.3642 181.695 40.9504 177.019 0.169629 170L0 170.986C40.8163 178.011 85.271 182.69 132.009 187.61ZM132.009 204.61H132.009C85.271 199.69 40.8163 195.011 0 187.986L0.169629 187C40.9504 194.019 85.3642 198.695 132.1 203.614L132.105 203.615C142.706 204.731 153.425 205.859 164.249 207.03C222.787 213.365 284.355 220.949 346.476 234.562C470.726 261.79 597.209 313.142 706.181 426.873C814.959 540.401 945.975 584.611 1076.04 602.972C1141.08 612.153 1205.87 614.87 1267.52 616.561C1278.12 616.852 1288.64 617.112 1299.05 617.37C1349.12 618.611 1396.71 619.789 1440.13 623.995L1440.04 624.99C1396.65 620.789 1349.11 619.611 1299.03 618.37C1288.62 618.112 1278.1 617.852 1267.49 617.561C1205.83 615.87 1140.99 613.152 1075.9 603.962C945.703 585.582 814.445 541.31 705.459 427.564C596.666 314.021 470.386 262.74 346.262 235.539C284.196 221.938 222.673 214.358 164.142 208.025C153.324 206.854 142.608 205.726 132.009 204.61ZM132.009 221.61H132.009C142.608 222.726 153.324 223.854 164.142 225.025C222.673 231.358 284.196 238.938 346.262 252.539C470.386 279.74 596.666 331.021 705.459 444.564C814.445 558.31 945.703 602.582 1075.9 620.962C1140.99 630.152 1205.83 632.87 1267.49 634.561C1278.1 634.852 1288.62 635.112 1299.03 635.37C1349.11 636.611 1396.65 637.789 1440.04 641.99L1440.13 640.995C1396.71 636.789 1349.12 635.611 1299.05 634.37C1288.64 634.112 1278.12 633.852 1267.52 633.561C1205.87 631.87 1141.08 629.153 1076.04 619.972C945.975 601.611 814.959 557.401 706.181 443.873C597.209 330.142 470.726 278.79 346.476 251.562C284.355 237.949 222.787 230.365 164.249 224.03C153.425 222.859 142.706 221.731 132.105 220.615L132.1 220.614C85.3642 215.695 40.9504 211.019 0.169629 204L0 204.986C40.8163 212.011 85.271 216.69 132.009 221.61ZM132.009 238.61H132.009C85.271 233.69 40.8163 229.011 0 221.986L0.169629 221C40.9504 228.019 85.3642 232.695 132.1 237.614L132.105 237.615C142.706 238.731 153.425 239.859 164.249 241.03C222.787 247.365 284.355 254.949 346.476 268.562C470.726 295.79 597.209 347.142 706.181 460.873C814.959 574.401 945.975 618.611 1076.04 636.972C1141.08 646.153 1205.87 648.87 1267.52 650.561C1278.12 650.852 1288.64 651.112 1299.05 651.37C1349.12 652.611 1396.71 653.789 1440.13 657.995L1440.04 658.99C1396.65 654.789 1349.11 653.611 1299.03 652.37C1288.62 652.112 1278.1 651.852 1267.49 651.561C1205.83 649.87 1140.99 647.152 1075.9 637.962C945.703 619.582 814.445 575.31 705.459 461.564C596.666 348.021 470.386 296.74 346.262 269.539C284.196 255.938 222.673 248.358 164.142 242.025C153.324 240.854 142.608 239.726 132.009 238.61ZM132.009 255.61H132.009C142.608 256.726 153.324 257.854 164.142 259.025C222.673 265.358 284.196 272.938 346.262 286.539C470.386 313.74 596.666 365.021 705.459 478.564C814.445 592.31 945.703 636.582 1075.9 654.962C1140.99 664.152 1205.83 666.87 1267.49 668.561C1278.1 668.852 1288.62 669.112 1299.03 669.37C1349.11 670.611 1396.65 671.789 1440.04 675.99L1440.13 674.995C1396.71 670.789 1349.12 669.611 1299.05 668.37C1288.64 668.112 1278.12 667.852 1267.52 667.561C1205.87 665.87 1141.08 663.153 1076.04 653.972C945.975 635.611 814.959 591.401 706.181 477.873C597.209 364.142 470.726 312.79 346.476 285.562C284.355 271.949 222.787 264.365 164.249 258.03C153.462 256.863 142.778 255.738 132.213 254.626L132.198 254.625L132.172 254.622L132.107 254.615L132.105 254.615L132.1 254.614C85.3642 249.695 40.9504 245.019 0.169629 238L0 238.986C40.8163 246.011 85.271 250.69 132.009 255.61ZM132.009 272.61C85.2711 267.69 40.8163 263.011 0 255.986L0.169629 255C40.9504 262.019 85.3642 266.695 132.1 271.614C142.702 272.73 153.424 273.859 164.249 275.03C222.787 281.365 284.355 288.949 346.476 302.562C470.726 329.79 597.209 381.142 706.181 494.873C814.959 608.401 945.975 652.611 1076.04 670.972C1141.08 680.153 1205.87 682.87 1267.52 684.561C1278.12 684.852 1288.64 685.112 1299.05 685.37C1349.12 686.611 1396.71 687.789 1440.13 691.995L1440.04 692.99C1396.65 688.789 1349.11 687.611 1299.03 686.37C1288.62 686.112 1278.1 685.852 1267.49 685.561C1205.83 683.87 1140.99 681.152 1075.9 671.962C945.703 653.582 814.445 609.31 705.459 495.564C596.666 382.021 470.386 330.74 346.262 303.539C284.196 289.938 222.673 282.358 164.142 276.025C153.324 274.854 142.608 273.726 132.009 272.61ZM0 272.986C40.8163 280.011 85.2711 284.69 132.009 289.61C142.608 290.726 153.324 291.854 164.142 293.025C222.673 299.358 284.196 306.938 346.262 320.539C470.386 347.74 596.666 399.021 705.459 512.564C814.445 626.31 945.703 670.582 1075.9 688.962C1140.99 698.152 1205.83 700.87 1267.49 702.561C1278.08 702.851 1288.58 703.111 1298.98 703.369L1299.01 703.369L1299.03 703.37H1299.03C1349.11 704.611 1396.65 705.789 1440.04 709.99L1440.13 708.995C1396.71 704.789 1349.12 703.611 1299.05 702.37H1299.05C1288.64 702.112 1278.12 701.852 1267.52 701.561C1205.87 699.87 1141.08 697.153 1076.04 687.972C945.975 669.611 814.959 625.401 706.181 511.873C597.209 398.142 470.726 346.79 346.476 319.562C284.355 305.949 222.787 298.365 164.249 292.03C153.426 290.859 142.706 289.731 132.105 288.615L132.1 288.614L132.099 288.614L132.098 288.614C85.3631 283.694 40.9499 279.019 0.169629 272L0 272.986ZM132.009 306.61C85.2711 301.69 40.8163 297.011 0 289.986L0.169629 289C40.9499 296.019 85.3631 300.694 132.098 305.614L132.099 305.614L132.1 305.614L132.105 305.615C142.706 306.731 153.426 307.859 164.249 309.03C222.787 315.365 284.355 322.949 346.476 336.562C470.726 363.79 597.209 415.142 706.181 528.873C814.959 642.401 945.975 686.611 1076.04 704.972C1141.08 714.153 1205.87 716.87 1267.52 718.561C1278.12 718.852 1288.64 719.112 1299.05 719.37H1299.05C1349.12 720.611 1396.71 721.789 1440.13 725.995L1440.04 726.99C1396.65 722.789 1349.11 721.611 1299.03 720.37H1299.03L1299.01 720.369L1298.98 720.369C1288.58 720.111 1278.08 719.851 1267.49 719.561C1205.83 717.87 1140.99 715.152 1075.9 705.962C945.703 687.582 814.445 643.31 705.459 529.564C596.666 416.021 470.386 364.74 346.262 337.539C284.196 323.938 222.673 316.358 164.142 310.025C153.324 308.854 142.608 307.726 132.009 306.61ZM0 306.986C40.8163 314.011 85.2711 318.69 132.009 323.61C142.608 324.726 153.324 325.854 164.142 327.025C222.673 333.358 284.196 340.938 346.262 354.539C470.386 381.74 596.666 433.021 705.459 546.564C814.445 660.31 945.703 704.582 1075.9 722.962C1140.99 732.152 1205.83 734.87 1267.49 736.561C1278.08 736.851 1288.58 737.111 1298.98 737.369L1299.01 737.369L1299.03 737.37H1299.03C1349.11 738.611 1396.65 739.789 1440.04 743.99L1440.13 742.995C1396.71 738.789 1349.12 737.611 1299.05 736.37H1299.05C1288.64 736.112 1278.12 735.852 1267.52 735.561C1205.87 733.87 1141.08 731.153 1076.04 721.972C945.975 703.611 814.959 659.401 706.181 545.873C597.209 432.142 470.726 380.79 346.476 353.562C284.355 339.949 222.787 332.365 164.249 326.03C153.426 324.859 142.706 323.731 132.105 322.615L132.1 322.614L132.099 322.614L132.098 322.614C85.3631 317.694 40.9499 313.019 0.169629 306L0 306.986ZM0 323.986C40.8163 331.011 85.2711 335.69 132.009 340.61C142.608 341.726 153.324 342.854 164.142 344.025C222.673 350.358 284.196 357.938 346.262 371.539C470.386 398.74 596.666 450.021 705.459 563.564C814.445 677.31 945.703 721.582 1075.9 739.962C1140.99 749.152 1205.83 751.87 1267.49 753.561C1278.08 753.851 1288.58 754.111 1298.98 754.369L1299.01 754.369L1299.03 754.37H1299.03C1349.11 755.611 1396.65 756.789 1440.04 760.99L1440.13 759.995C1396.71 755.789 1349.12 754.611 1299.05 753.37H1299.05C1288.64 753.112 1278.12 752.852 1267.52 752.561C1205.87 750.87 1141.08 748.153 1076.04 738.972C945.975 720.611 814.959 676.401 706.181 562.873C597.209 449.142 470.726 397.79 346.476 370.562C284.355 356.949 222.787 349.365 164.249 343.03C153.426 341.859 142.706 340.731 132.105 339.615L132.1 339.614L132.099 339.614L132.098 339.614C85.3631 334.694 40.9499 330.019 0.169629 323L0 323.986Z" fill="url(#paint0_radial_33_53)"/>
<defs>
<radialGradient id="paint0_radial_33_53" cx="0" cy="0" r="1" gradientUnits="userSpaceOnUse" gradientTransform="translate(720.067 357.471) rotate(0.0479772) scale(720.019 2129.74)">
<stop offset="0.095" stop-color="#FEF3C7"/>
<stop offset="0.825" stop-color="#D9F99D" stop-opacity="0"/>
</radialGradient>
</defs>
</svg>
