<svg width="136" height="16" viewBox="0 0 136 16" fill="none" xmlns="http://www.w3.org/2000/svg">
<path d="M1 14.8087V1.32514H7.82787L11.1557 13.9481H12.0164L11.347 11.8251V1.32514H14.8279V14.8087H8L4.67213 2.18579H3.81148L4.48087 4.30874V14.8087H1Z" fill="white"/>
<path d="M15.6905 9.95082C15.6905 6.52732 18.1577 4.93989 21.1987 4.93989C24.2014 4.93989 26.6877 6.52732 26.6877 9.95082C26.6877 13.4126 24.2014 15 21.1987 15C18.1577 15 15.6905 13.4126 15.6905 9.95082ZM18.961 9.95082C18.961 11.4044 19.8599 12.112 21.1987 12.112C22.4992 12.112 23.3981 11.4044 23.3981 9.95082C23.3981 8.51639 22.4992 7.82787 21.1987 7.82787C19.8599 7.82787 18.961 8.51639 18.961 9.95082Z" fill="white"/>
<path d="M35.776 11.9208V14.8087H30.5738C29.5028 14.8087 28.9099 14.2158 28.9099 13.1257V8.01913H26.5766V5.13115H28.9099V3.40984L32.1804 2.37705V5.13115H35.3935V8.01913H32.1804V11.9399L35.776 11.9208Z" fill="white"/>
<path d="M41.4575 14.8087V1.32514H46.7745C51.0013 1.32514 52.8756 2.74044 52.8756 6.24044C52.8756 9.70219 51.0013 11.1175 46.7745 11.1175H44.9384V14.8087H41.4575ZM44.9384 8.0765H46.9849C48.6679 8.0765 49.4138 7.61749 49.4138 6.24044C49.4138 4.82514 48.6679 4.36612 46.9849 4.36612H44.9384V8.0765Z" fill="white"/>
<path d="M53.527 6.79508C53.527 5.70492 54.1391 5.13115 55.2292 5.13115H61.7128V8.01913H56.8167V14.8087H53.527V6.79508Z" fill="white"/>
<path d="M61.9486 14.8087V11.9208H64.6645V8.01913H62.2929V5.13115H66.0224C67.0743 5.13115 67.6863 5.66667 67.6863 6.73771V11.9208H70.4213V14.8087H61.9486ZM64.0333 2.64481C64.0333 1.53552 64.7792 1 65.9459 1C67.1125 1 67.9158 1.53552 67.9158 2.64481C67.9158 3.77322 67.1125 4.28962 65.9459 4.28962C64.7792 4.28962 64.0333 3.77322 64.0333 2.64481Z" fill="white"/>
<path d="M71.1672 14.8087V5.13115H74.4377V5.9918L73.8257 7.82787H74.6289C75.0115 6.10656 75.8721 4.93989 77.7655 4.93989C79.6016 4.93989 80.3475 6.16393 80.6344 7.82787H81.2082C81.5907 6.10656 82.4131 4.93989 84.3065 4.93989C86.8311 4.93989 87.5196 7.2541 87.5196 9.87432V14.8087H84.2492V10.0847C84.2492 8.24863 83.9623 7.82787 82.8912 7.82787C81.2847 7.82787 80.9787 9.20492 80.9787 11.5191V14.8087H77.689L77.7082 14.7705V10.0847C77.7082 8.24863 77.4213 7.82787 76.3503 7.82787C74.7437 7.82787 74.4377 9.20492 74.4377 11.5191V14.8087H71.1672Z" fill="white"/>
<path d="M88.3503 14.8087V11.9208H91.0661V8.01913H88.6945V5.13115H92.424C93.476 5.13115 94.088 5.66667 94.088 6.73771V11.9208H96.823V14.8087H88.3503ZM90.435 2.64481C90.435 1.53552 91.1809 1 92.3475 1C93.5142 1 94.3175 1.53552 94.3175 2.64481C94.3175 3.77322 93.5142 4.28962 92.3475 4.28962C91.1809 4.28962 90.435 3.77322 90.435 2.64481Z" fill="white"/>
<path d="M104.751 11.9208V14.8087H99.5488C98.4778 14.8087 97.8849 14.2158 97.8849 13.1257V8.01913H95.5515V5.13115H97.8849V3.40984L101.155 2.37705V5.13115H104.368V8.01913H101.155V11.9399L104.751 11.9208Z" fill="white"/>
<path d="M105.432 14.8087V11.9208H108.148V8.01913H105.776V5.13115H109.506C110.558 5.13115 111.17 5.66667 111.17 6.73771V11.9208H113.905V14.8087H105.432ZM107.517 2.64481C107.517 1.53552 108.262 1 109.429 1C110.596 1 111.399 1.53552 111.399 2.64481C111.399 3.77322 110.596 4.28962 109.429 4.28962C108.262 4.28962 107.517 3.77322 107.517 2.64481Z" fill="white"/>
<path d="M121.401 5.13115H124.614L122.261 14.8087H115.472L113.1 5.13115H116.39L118.494 13.9863H119.316L121.401 5.13115Z" fill="white"/>
<path d="M124.488 9.93169C124.488 6.81421 126.63 4.93989 129.633 4.93989C132.98 4.93989 134.911 6.75683 134.911 9.79781V10.6585H127.778C127.892 11.8634 128.6 12.5328 129.786 12.5328C130.799 12.5328 131.488 12.1311 131.679 11.3852H134.931C134.663 13.5273 132.769 15 129.786 15C126.515 15 124.488 12.9536 124.488 9.93169ZM127.778 8.97541H131.717C131.622 7.90437 130.876 7.31148 129.728 7.31148C128.6 7.31148 127.854 7.90437 127.778 8.97541Z" fill="white"/>
</svg>
