<svg width="138" height="80" viewBox="0 0 138 80" fill="none" xmlns="http://www.w3.org/2000/svg">
<path d="M10.52 34V8.08H14.912L23.48 25.288L32.048 8.08H36.44V34H31.868V18.52L24.344 34H22.616L15.092 18.52V34H10.52ZM41.2047 34V29.104H46.1007V34H41.2047ZM51.2239 34V8.08H56.1199V34H51.2239ZM61.2282 34V29.104H66.1242V34H61.2282ZM76.8995 34V12.652H68.7275V8.08H89.9675V12.652H81.7955V34H76.8995ZM88.9862 34V29.104H93.8822V34H88.9862ZM108.437 34.54C106.517 34.54 104.783 34.204 103.235 33.532C101.699 32.848 100.433 31.876 99.4375 30.616C98.4535 29.344 97.8295 27.832 97.5655 26.08L102.677 25.324C103.037 26.812 103.781 27.958 104.909 28.762C106.037 29.566 107.321 29.968 108.761 29.968C109.565 29.968 110.345 29.842 111.101 29.59C111.857 29.338 112.475 28.966 112.955 28.474C113.447 27.982 113.693 27.376 113.693 26.656C113.693 26.392 113.651 26.14 113.567 25.9C113.495 25.648 113.369 25.414 113.189 25.198C113.009 24.982 112.751 24.778 112.415 24.586C112.091 24.394 111.677 24.22 111.173 24.064L104.441 22.084C103.937 21.94 103.349 21.736 102.677 21.472C102.017 21.208 101.375 20.83 100.751 20.338C100.127 19.846 99.6055 19.198 99.1855 18.394C98.7775 17.578 98.5735 16.552 98.5735 15.316C98.5735 13.576 99.0115 12.13 99.8875 10.978C100.763 9.826 101.933 8.968 103.397 8.404C104.861 7.84 106.481 7.564 108.257 7.576C110.045 7.6 111.641 7.906 113.045 8.494C114.449 9.082 115.625 9.94 116.573 11.068C117.521 12.184 118.205 13.552 118.625 15.172L113.333 16.072C113.141 15.232 112.787 14.524 112.271 13.948C111.755 13.372 111.137 12.934 110.417 12.634C109.709 12.334 108.965 12.172 108.185 12.148C107.417 12.124 106.691 12.232 106.007 12.472C105.335 12.7 104.783 13.036 104.351 13.48C103.931 13.924 103.721 14.452 103.721 15.064C103.721 15.628 103.895 16.09 104.243 16.45C104.591 16.798 105.029 17.08 105.557 17.296C106.085 17.512 106.625 17.692 107.177 17.836L111.677 19.06C112.349 19.24 113.093 19.48 113.909 19.78C114.725 20.068 115.505 20.476 116.249 21.004C117.005 21.52 117.623 22.204 118.103 23.056C118.595 23.908 118.841 24.988 118.841 26.296C118.841 27.688 118.547 28.906 117.959 29.95C117.383 30.982 116.603 31.84 115.619 32.524C114.635 33.196 113.519 33.7 112.271 34.036C111.035 34.372 109.757 34.54 108.437 34.54ZM121.596 34V29.104H126.492V34H121.596Z" fill="black"/>
<path d="M12.2232 44.8182H13.6948L17.155 53.2699H17.2743L20.7346 44.8182H22.2061V55H21.0527V47.2642H20.9533L17.7715 55H16.6578L13.476 47.2642H13.3766V55H12.2232V44.8182ZM27.6214 55.1591C26.9321 55.1591 26.3272 54.995 25.8068 54.6669C25.2898 54.3388 24.8854 53.8797 24.5938 53.2898C24.3054 52.6998 24.1612 52.0104 24.1612 51.2216C24.1612 50.4261 24.3054 49.7318 24.5938 49.1385C24.8854 48.5452 25.2898 48.0845 25.8068 47.7564C26.3272 47.4283 26.9321 47.2642 27.6214 47.2642C28.3108 47.2642 28.9141 47.4283 29.4311 47.7564C29.9515 48.0845 30.3558 48.5452 30.6442 49.1385C30.9358 49.7318 31.0817 50.4261 31.0817 51.2216C31.0817 52.0104 30.9358 52.6998 30.6442 53.2898C30.3558 53.8797 29.9515 54.3388 29.4311 54.6669C28.9141 54.995 28.3108 55.1591 27.6214 55.1591ZM27.6214 54.1051C28.1451 54.1051 28.576 53.9709 28.9141 53.7024C29.2521 53.4339 29.5024 53.081 29.6648 52.6435C29.8272 52.206 29.9084 51.732 29.9084 51.2216C29.9084 50.7112 29.8272 50.2356 29.6648 49.7947C29.5024 49.3539 29.2521 48.9976 28.9141 48.7259C28.576 48.4541 28.1451 48.3182 27.6214 48.3182C27.0978 48.3182 26.6669 48.4541 26.3288 48.7259C25.9908 48.9976 25.7405 49.3539 25.5781 49.7947C25.4157 50.2356 25.3345 50.7112 25.3345 51.2216C25.3345 51.732 25.4157 52.206 25.5781 52.6435C25.7405 53.081 25.9908 53.4339 26.3288 53.7024C26.6669 53.9709 27.0978 54.1051 27.6214 54.1051ZM34.046 50.4062V55H32.8727V47.3636H34.0062V48.5568H34.1056C34.2846 48.169 34.5564 47.8575 34.921 47.6222C35.2856 47.3835 35.7562 47.2642 36.3329 47.2642C36.85 47.2642 37.3024 47.3703 37.6902 47.5824C38.0779 47.7912 38.3796 48.1094 38.595 48.5369C38.8104 48.9612 38.9181 49.4981 38.9181 50.1477V55H37.7449V50.2273C37.7449 49.6274 37.5891 49.16 37.2775 48.8253C36.966 48.4872 36.5384 48.3182 35.9949 48.3182C35.6203 48.3182 35.2856 48.3994 34.9906 48.5618C34.6989 48.7242 34.4686 48.9612 34.2995 49.2727C34.1305 49.5843 34.046 49.9621 34.046 50.4062ZM43.3093 55.179C42.8254 55.179 42.3862 55.0878 41.9918 54.9055C41.5974 54.7199 41.2842 54.4531 41.0522 54.1051C40.8202 53.7538 40.7042 53.3295 40.7042 52.8324C40.7042 52.3949 40.7904 52.0402 40.9627 51.7685C41.1351 51.4934 41.3654 51.2779 41.6538 51.1222C41.9421 50.9664 42.2603 50.8504 42.6083 50.7741C42.9596 50.6946 43.3126 50.6316 43.6673 50.5852C44.1313 50.5256 44.5075 50.4808 44.7958 50.451C45.0875 50.4179 45.2996 50.3632 45.4322 50.2869C45.5681 50.2107 45.636 50.0781 45.636 49.8892V49.8494C45.636 49.3589 45.5018 48.9777 45.2333 48.706C44.9682 48.4342 44.5655 48.2983 44.0252 48.2983C43.4651 48.2983 43.0259 48.4209 42.7077 48.6662C42.3896 48.9115 42.1658 49.1733 42.0366 49.4517L40.9229 49.054C41.1218 48.59 41.387 48.2287 41.7184 47.9702C42.0531 47.7083 42.4177 47.526 42.8121 47.4233C43.2099 47.3172 43.601 47.2642 43.9854 47.2642C44.2307 47.2642 44.5124 47.294 44.8306 47.3537C45.1521 47.41 45.462 47.5277 45.7603 47.7067C46.0619 47.8857 46.3121 48.1558 46.511 48.517C46.7099 48.8783 46.8093 49.3622 46.8093 49.9688V55H45.636V53.9659H45.5763C45.4968 54.1316 45.3642 54.3089 45.1786 54.4979C44.993 54.6868 44.7461 54.8475 44.4379 54.9801C44.1296 55.1127 43.7534 55.179 43.3093 55.179ZM43.4883 54.125C43.9523 54.125 44.3434 54.0339 44.6616 53.8516C44.9831 53.6693 45.225 53.4339 45.3874 53.1456C45.5531 52.8572 45.636 52.554 45.636 52.2358V51.1619C45.5863 51.2216 45.4769 51.2763 45.3079 51.326C45.1422 51.3724 44.9499 51.4138 44.7312 51.4503C44.5157 51.4834 44.3053 51.5133 44.0998 51.5398C43.8976 51.563 43.7335 51.5829 43.6076 51.5994C43.3027 51.6392 43.0176 51.7038 42.7525 51.7933C42.4906 51.8795 42.2785 52.0104 42.1161 52.1861C41.957 52.3584 41.8775 52.5937 41.8775 52.892C41.8775 53.2997 42.0283 53.608 42.3299 53.8168C42.6348 54.0223 43.021 54.125 43.4883 54.125ZM54.2804 44.8182V55H53.0474V44.8182H54.2804ZM57.7667 50.4062V55H56.5934V47.3636H57.7269V48.5568H57.8263C58.0053 48.169 58.2771 47.8575 58.6417 47.6222C59.0063 47.3835 59.4769 47.2642 60.0536 47.2642C60.5707 47.2642 61.0231 47.3703 61.4109 47.5824C61.7987 47.7912 62.1003 48.1094 62.3157 48.5369C62.5311 48.9612 62.6388 49.4981 62.6388 50.1477V55H61.4656V50.2273C61.4656 49.6274 61.3098 49.16 60.9982 48.8253C60.6867 48.4872 60.2591 48.3182 59.7156 48.3182C59.341 48.3182 59.0063 48.3994 58.7113 48.5618C58.4196 48.7242 58.1893 48.9612 58.0202 49.2727C57.8512 49.5843 57.7667 49.9621 57.7667 50.4062ZM68.1834 47.3636V48.358H64.0669V47.3636H68.1834ZM65.2999 55V46.3097C65.2999 45.8722 65.4026 45.5076 65.6081 45.2159C65.8136 44.9242 66.0804 44.7055 66.4086 44.5597C66.7367 44.4138 67.083 44.3409 67.4476 44.3409C67.736 44.3409 67.9713 44.3641 68.1536 44.4105C68.3359 44.4569 68.4718 44.5 68.5613 44.5398L68.2232 45.554C68.1635 45.5341 68.0807 45.5092 67.9746 45.4794C67.8719 45.4496 67.736 45.4347 67.5669 45.4347C67.1792 45.4347 66.8991 45.5324 66.7267 45.728C66.5577 45.9235 66.4732 46.2102 66.4732 46.5881V55H65.2999ZM72.6156 55.1591C71.9262 55.1591 71.3213 54.995 70.801 54.6669C70.2839 54.3388 69.8796 53.8797 69.5879 53.2898C69.2995 52.6998 69.1554 52.0104 69.1554 51.2216C69.1554 50.4261 69.2995 49.7318 69.5879 49.1385C69.8796 48.5452 70.2839 48.0845 70.801 47.7564C71.3213 47.4283 71.9262 47.2642 72.6156 47.2642C73.305 47.2642 73.9082 47.4283 74.4252 47.7564C74.9456 48.0845 75.35 48.5452 75.6383 49.1385C75.93 49.7318 76.0758 50.4261 76.0758 51.2216C76.0758 52.0104 75.93 52.6998 75.6383 53.2898C75.35 53.8797 74.9456 54.3388 74.4252 54.6669C73.9082 54.995 73.305 55.1591 72.6156 55.1591ZM72.6156 54.1051C73.1393 54.1051 73.5701 53.9709 73.9082 53.7024C74.2463 53.4339 74.4965 53.081 74.6589 52.6435C74.8213 52.206 74.9025 51.732 74.9025 51.2216C74.9025 50.7112 74.8213 50.2356 74.6589 49.7947C74.4965 49.3539 74.2463 48.9976 73.9082 48.7259C73.5701 48.4541 73.1393 48.3182 72.6156 48.3182C72.0919 48.3182 71.661 48.4541 71.323 48.7259C70.9849 48.9976 70.7347 49.3539 70.5723 49.7947C70.4099 50.2356 70.3287 50.7112 70.3287 51.2216C70.3287 51.732 70.4099 52.206 70.5723 52.6435C70.7347 53.081 70.9849 53.4339 71.323 53.7024C71.661 53.9709 72.0919 54.1051 72.6156 54.1051ZM77.8668 55V47.3636H79.0004V48.517H79.0799C79.2191 48.1392 79.471 47.8326 79.8356 47.5973C80.2002 47.362 80.6112 47.2443 81.0685 47.2443C81.1547 47.2443 81.2624 47.246 81.3917 47.2493C81.521 47.2526 81.6187 47.2576 81.685 47.2642V48.4574C81.6452 48.4474 81.5541 48.4325 81.4116 48.4126C81.2724 48.3894 81.1249 48.3778 80.9691 48.3778C80.5979 48.3778 80.2665 48.4557 79.9748 48.6115C79.6864 48.764 79.4577 48.9761 79.2887 49.2479C79.123 49.5163 79.0401 49.8229 79.0401 50.1676V55H77.8668ZM83.0758 55V47.3636H84.2093V48.5568H84.3088C84.4679 48.1491 84.7247 47.8326 85.0794 47.6072C85.434 47.3786 85.8599 47.2642 86.3571 47.2642C86.8609 47.2642 87.2801 47.3786 87.6149 47.6072C87.9529 47.8326 88.2164 48.1491 88.4054 48.5568H88.4849C88.6805 48.1624 88.9738 47.8492 89.3649 47.6172C89.756 47.3819 90.225 47.2642 90.7718 47.2642C91.4546 47.2642 92.0131 47.478 92.4473 47.9055C92.8815 48.3298 93.0985 48.991 93.0985 49.8892V55H91.9252V49.8892C91.9252 49.3258 91.7711 48.9231 91.4629 48.6811C91.1547 48.4392 90.7917 48.3182 90.3741 48.3182C89.8372 48.3182 89.4212 48.4806 89.1262 48.8054C88.8313 49.1269 88.6838 49.5346 88.6838 50.0284V55H87.4906V49.7699C87.4906 49.3357 87.3497 48.986 87.068 48.7209C86.7863 48.4524 86.4234 48.3182 85.9792 48.3182C85.6743 48.3182 85.3893 48.3994 85.1241 48.5618C84.8623 48.7242 84.6502 48.9496 84.4877 49.2379C84.3287 49.523 84.2491 49.8527 84.2491 50.2273V55H83.0758ZM97.4909 55.179C97.007 55.179 96.5679 55.0878 96.1735 54.9055C95.7791 54.7199 95.4658 54.4531 95.2338 54.1051C95.0018 53.7538 94.8858 53.3295 94.8858 52.8324C94.8858 52.3949 94.972 52.0402 95.1444 51.7685C95.3167 51.4934 95.5471 51.2779 95.8354 51.1222C96.1238 50.9664 96.4419 50.8504 96.79 50.7741C97.1413 50.6946 97.4943 50.6316 97.8489 50.5852C98.3129 50.5256 98.6891 50.4808 98.9775 50.451C99.2691 50.4179 99.4812 50.3632 99.6138 50.2869C99.7497 50.2107 99.8176 50.0781 99.8176 49.8892V49.8494C99.8176 49.3589 99.6834 48.9777 99.415 48.706C99.1498 48.4342 98.7471 48.2983 98.2069 48.2983C97.6467 48.2983 97.2076 48.4209 96.8894 48.6662C96.5712 48.9115 96.3475 49.1733 96.2182 49.4517L95.1046 49.054C95.3034 48.59 95.5686 48.2287 95.9 47.9702C96.2348 47.7083 96.5994 47.526 96.9938 47.4233C97.3915 47.3172 97.7826 47.2642 98.1671 47.2642C98.4123 47.2642 98.6941 47.294 99.0123 47.3537C99.3337 47.41 99.6436 47.5277 99.9419 47.7067C100.244 47.8857 100.494 48.1558 100.693 48.517C100.892 48.8783 100.991 49.3622 100.991 49.9688V55H99.8176V53.9659H99.758C99.6784 54.1316 99.5459 54.3089 99.3603 54.4979C99.1747 54.6868 98.9277 54.8475 98.6195 54.9801C98.3113 55.1127 97.9351 55.179 97.4909 55.179ZM97.6699 54.125C98.1339 54.125 98.525 54.0339 98.8432 53.8516C99.1647 53.6693 99.4067 53.4339 99.5691 53.1456C99.7348 52.8572 99.8176 52.554 99.8176 52.2358V51.1619C99.7679 51.2216 99.6586 51.2763 99.4895 51.326C99.3238 51.3724 99.1316 51.4138 98.9128 51.4503C98.6974 51.4834 98.4869 51.5133 98.2814 51.5398C98.0792 51.563 97.9152 51.5829 97.7892 51.5994C97.4843 51.6392 97.1993 51.7038 96.9341 51.7933C96.6723 51.8795 96.4602 52.0104 96.2978 52.1861C96.1387 52.3584 96.0591 52.5937 96.0591 52.892C96.0591 53.2997 96.2099 53.608 96.5115 53.8168C96.8165 54.0223 97.2026 54.125 97.6699 54.125ZM106.453 47.3636V48.358H102.496V47.3636H106.453ZM103.65 45.5341H104.823V52.8125C104.823 53.1439 104.871 53.3925 104.967 53.5582C105.066 53.7206 105.192 53.83 105.345 53.8864C105.501 53.9394 105.665 53.9659 105.837 53.9659C105.966 53.9659 106.072 53.9593 106.155 53.946C106.238 53.9295 106.304 53.9162 106.354 53.9062L106.593 54.9602C106.513 54.9901 106.402 55.0199 106.26 55.0497C106.117 55.0829 105.936 55.0994 105.718 55.0994C105.386 55.0994 105.061 55.0282 104.743 54.8857C104.428 54.7431 104.167 54.526 103.958 54.2344C103.752 53.9427 103.65 53.5748 103.65 53.1307V45.5341ZM108.218 55V47.3636H109.392V55H108.218ZM108.815 46.0909C108.586 46.0909 108.389 46.013 108.223 45.8572C108.061 45.7015 107.98 45.5142 107.98 45.2955C107.98 45.0767 108.061 44.8894 108.223 44.7337C108.389 44.5779 108.586 44.5 108.815 44.5C109.044 44.5 109.239 44.5779 109.402 44.7337C109.567 44.8894 109.65 45.0767 109.65 45.2955C109.65 45.5142 109.567 45.7015 109.402 45.8572C109.239 46.013 109.044 46.0909 108.815 46.0909ZM114.643 55.1591C113.954 55.1591 113.349 54.995 112.828 54.6669C112.311 54.3388 111.907 53.8797 111.615 53.2898C111.327 52.6998 111.183 52.0104 111.183 51.2216C111.183 50.4261 111.327 49.7318 111.615 49.1385C111.907 48.5452 112.311 48.0845 112.828 47.7564C113.349 47.4283 113.954 47.2642 114.643 47.2642C115.332 47.2642 115.936 47.4283 116.453 47.7564C116.973 48.0845 117.377 48.5452 117.666 49.1385C117.957 49.7318 118.103 50.4261 118.103 51.2216C118.103 52.0104 117.957 52.6998 117.666 53.2898C117.377 53.8797 116.973 54.3388 116.453 54.6669C115.936 54.995 115.332 55.1591 114.643 55.1591ZM114.643 54.1051C115.167 54.1051 115.597 53.9709 115.936 53.7024C116.274 53.4339 116.524 53.081 116.686 52.6435C116.849 52.206 116.93 51.732 116.93 51.2216C116.93 50.7112 116.849 50.2356 116.686 49.7947C116.524 49.3539 116.274 48.9976 115.936 48.7259C115.597 48.4541 115.167 48.3182 114.643 48.3182C114.119 48.3182 113.688 48.4541 113.35 48.7259C113.012 48.9976 112.762 49.3539 112.6 49.7947C112.437 50.2356 112.356 50.7112 112.356 51.2216C112.356 51.732 112.437 52.206 112.6 52.6435C112.762 53.081 113.012 53.4339 113.35 53.7024C113.688 53.9709 114.119 54.1051 114.643 54.1051ZM121.067 50.4062V55H119.894V47.3636H121.028V48.5568H121.127C121.306 48.169 121.578 47.8575 121.942 47.6222C122.307 47.3835 122.778 47.2642 123.354 47.2642C123.871 47.2642 124.324 47.3703 124.712 47.5824C125.099 47.7912 125.401 48.1094 125.616 48.5369C125.832 48.9612 125.94 49.4981 125.94 50.1477V55H124.766V50.2273C124.766 49.6274 124.611 49.16 124.299 48.8253C123.987 48.4872 123.56 48.3182 123.016 48.3182C122.642 48.3182 122.307 48.3994 122.012 48.5618C121.72 48.7242 121.49 48.9612 121.321 49.2727C121.152 49.5843 121.067 49.9621 121.067 50.4062ZM0.920277 65.9119V64.8182H8.55664V65.9119H5.35494V75H4.12198V65.9119H0.920277ZM12.3947 75.1591C11.6589 75.1591 11.0242 74.9967 10.4906 74.6719C9.96029 74.3438 9.55096 73.8864 9.26261 73.2997C8.97757 72.7098 8.83505 72.0237 8.83505 71.2415C8.83505 70.4593 8.97757 69.7699 9.26261 69.1733C9.55096 68.5734 9.952 68.1061 10.4657 67.7713C10.9828 67.4332 11.586 67.2642 12.2754 67.2642C12.6731 67.2642 13.0659 67.3305 13.4537 67.4631C13.8414 67.5956 14.1944 67.8111 14.5126 68.1094C14.8308 68.4044 15.0843 68.7955 15.2733 69.2827C15.4622 69.7699 15.5566 70.3698 15.5566 71.0824V71.5795H9.67028V70.5653H14.3635C14.3635 70.1345 14.2773 69.75 14.1049 69.4119C13.9359 69.0739 13.694 68.8071 13.3791 68.6115C13.0675 68.416 12.6996 68.3182 12.2754 68.3182C11.8081 68.3182 11.4037 68.4342 11.0623 68.6662C10.7243 68.8949 10.4641 69.1932 10.2818 69.5611C10.0995 69.929 10.0083 70.3234 10.0083 70.7443V71.4205C10.0083 71.9972 10.1078 72.486 10.3066 72.8871C10.5088 73.2848 10.7889 73.5881 11.1468 73.7969C11.5048 74.0024 11.9208 74.1051 12.3947 74.1051C12.7029 74.1051 12.9814 74.062 13.2299 73.9759C13.4818 73.8864 13.6989 73.7538 13.8812 73.5781C14.0635 73.3991 14.2044 73.1771 14.3038 72.9119L15.4373 73.2301C15.318 73.6146 15.1175 73.9527 14.8358 74.2443C14.554 74.5327 14.206 74.758 13.7917 74.9205C13.3774 75.0795 12.9118 75.1591 12.3947 75.1591ZM20.4437 75.1591C19.7278 75.1591 19.1113 74.9901 18.5943 74.652C18.0772 74.3139 17.6795 73.8482 17.4011 73.255C17.1227 72.6617 16.9835 71.9839 16.9835 71.2216C16.9835 70.446 17.126 69.7616 17.411 69.1683C17.6994 68.5717 18.1004 68.1061 18.6142 67.7713C19.1312 67.4332 19.7344 67.2642 20.4238 67.2642C20.9608 67.2642 21.4447 67.3636 21.8755 67.5625C22.3064 67.7614 22.6594 68.0398 22.9345 68.3977C23.2096 68.7557 23.3803 69.1733 23.4466 69.6506H22.2733C22.1838 69.3026 21.9849 68.9943 21.6767 68.7259C21.3717 68.4541 20.9608 68.3182 20.4437 68.3182C19.9863 68.3182 19.5853 68.4375 19.2406 68.6761C18.8992 68.9115 18.6324 69.2446 18.4402 69.6754C18.2512 70.103 18.1568 70.6051 18.1568 71.1818C18.1568 71.7718 18.2496 72.2855 18.4352 72.723C18.6241 73.1605 18.8893 73.5002 19.2306 73.7422C19.5753 73.9841 19.9797 74.1051 20.4437 74.1051C20.7486 74.1051 21.0254 74.0521 21.274 73.946C21.5225 73.84 21.733 73.6875 21.9054 73.4886C22.0777 73.2898 22.2003 73.0511 22.2733 72.7727H23.4466C23.3803 73.2235 23.2162 73.6295 22.9544 73.9908C22.6958 74.3487 22.3528 74.6338 21.9252 74.8459C21.501 75.0547 21.0072 75.1591 20.4437 75.1591ZM26.335 70.4062V75H25.1618V64.8182H26.335V68.5568H26.4345C26.6135 68.1624 26.8819 67.8492 27.2399 67.6172C27.6011 67.3819 28.0817 67.2642 28.6816 67.2642C29.202 67.2642 29.6577 67.3686 30.0488 67.5774C30.4399 67.7829 30.7432 68.0994 30.9586 68.527C31.1774 68.9512 31.2868 69.4915 31.2868 70.1477V75H30.1135V70.2273C30.1135 69.6207 29.956 69.1518 29.6412 68.8203C29.3296 68.4856 28.8971 68.3182 28.3436 68.3182C27.9591 68.3182 27.6144 68.3994 27.3095 68.5618C27.0079 68.7242 26.7692 68.9612 26.5936 69.2727C26.4212 69.5843 26.335 69.9621 26.335 70.4062ZM34.6065 70.4062V75H33.4332V67.3636H34.5668V68.5568H34.6662C34.8452 68.169 35.117 67.8575 35.4815 67.6222C35.8461 67.3835 36.3168 67.2642 36.8935 67.2642C37.4105 67.2642 37.8629 67.3703 38.2507 67.5824C38.6385 67.7912 38.9401 68.1094 39.1555 68.5369C39.371 68.9612 39.4787 69.4981 39.4787 70.1477V75H38.3054V70.2273C38.3054 69.6274 38.1496 69.16 37.8381 68.8253C37.5265 68.4872 37.099 68.3182 36.5554 68.3182C36.1809 68.3182 35.8461 68.3994 35.5511 68.5618C35.2595 68.7242 35.0291 68.9612 34.8601 69.2727C34.6911 69.5843 34.6065 69.9621 34.6065 70.4062ZM44.725 75.1591C44.0356 75.1591 43.4307 74.995 42.9103 74.6669C42.3933 74.3388 41.9889 73.8797 41.6973 73.2898C41.4089 72.6998 41.2647 72.0104 41.2647 71.2216C41.2647 70.4261 41.4089 69.7318 41.6973 69.1385C41.9889 68.5452 42.3933 68.0845 42.9103 67.7564C43.4307 67.4283 44.0356 67.2642 44.725 67.2642C45.4144 67.2642 46.0176 67.4283 46.5346 67.7564C47.055 68.0845 47.4593 68.5452 47.7477 69.1385C48.0394 69.7318 48.1852 70.4261 48.1852 71.2216C48.1852 72.0104 48.0394 72.6998 47.7477 73.2898C47.4593 73.8797 47.055 74.3388 46.5346 74.6669C46.0176 74.995 45.4144 75.1591 44.725 75.1591ZM44.725 74.1051C45.2486 74.1051 45.6795 73.9709 46.0176 73.7024C46.3556 73.4339 46.6059 73.081 46.7683 72.6435C46.9307 72.206 47.0119 71.732 47.0119 71.2216C47.0119 70.7112 46.9307 70.2356 46.7683 69.7947C46.6059 69.3539 46.3556 68.9976 46.0176 68.7259C45.6795 68.4541 45.2486 68.3182 44.725 68.3182C44.2013 68.3182 43.7704 68.4541 43.4324 68.7259C43.0943 68.9976 42.844 69.3539 42.6816 69.7947C42.5192 70.2356 42.438 70.7112 42.438 71.2216C42.438 71.732 42.5192 72.206 42.6816 72.6435C42.844 73.081 43.0943 73.4339 43.4324 73.7024C43.7704 73.9709 44.2013 74.1051 44.725 74.1051ZM51.1495 64.8182V75H49.9762V64.8182H51.1495ZM56.4007 75.1591C55.7114 75.1591 55.1065 74.995 54.5861 74.6669C54.0691 74.3388 53.6647 73.8797 53.373 73.2898C53.0847 72.6998 52.9405 72.0104 52.9405 71.2216C52.9405 70.4261 53.0847 69.7318 53.373 69.1385C53.6647 68.5452 54.0691 68.0845 54.5861 67.7564C55.1065 67.4283 55.7114 67.2642 56.4007 67.2642C57.0901 67.2642 57.6934 67.4283 58.2104 67.7564C58.7308 68.0845 59.1351 68.5452 59.4235 69.1385C59.7151 69.7318 59.861 70.4261 59.861 71.2216C59.861 72.0104 59.7151 72.6998 59.4235 73.2898C59.1351 73.8797 58.7308 74.3388 58.2104 74.6669C57.6934 74.995 57.0901 75.1591 56.4007 75.1591ZM56.4007 74.1051C56.9244 74.1051 57.3553 73.9709 57.6934 73.7024C58.0314 73.4339 58.2817 73.081 58.4441 72.6435C58.6065 72.206 58.6877 71.732 58.6877 71.2216C58.6877 70.7112 58.6065 70.2356 58.4441 69.7947C58.2817 69.3539 58.0314 68.9976 57.6934 68.7259C57.3553 68.4541 56.9244 68.3182 56.4007 68.3182C55.8771 68.3182 55.4462 68.4541 55.1081 68.7259C54.7701 68.9976 54.5198 69.3539 54.3574 69.7947C54.195 70.2356 54.1138 70.7112 54.1138 71.2216C54.1138 71.732 54.195 72.206 54.3574 72.6435C54.5198 73.081 54.7701 73.4339 55.1081 73.7024C55.4462 73.9709 55.8771 74.1051 56.4007 74.1051ZM64.7344 78.0227C64.1676 78.0227 63.6804 77.9498 63.2727 77.804C62.8651 77.6615 62.5253 77.4725 62.2536 77.2372C61.9851 77.0052 61.7713 76.7566 61.6122 76.4915L62.5469 75.8352C62.6529 75.9744 62.7872 76.1335 62.9496 76.3125C63.112 76.4948 63.334 76.6522 63.6158 76.7848C63.9008 76.9207 64.2737 76.9886 64.7344 76.9886C65.3509 76.9886 65.8596 76.8395 66.2607 76.5412C66.6617 76.2429 66.8622 75.7756 66.8622 75.1392V73.5881H66.7628C66.6766 73.7273 66.554 73.8996 66.3949 74.1051C66.2391 74.3073 66.0137 74.4879 65.7188 74.647C65.4271 74.8028 65.0327 74.8807 64.5355 74.8807C63.919 74.8807 63.3655 74.7348 62.875 74.4432C62.3878 74.1515 62.0017 73.7273 61.7166 73.1705C61.4349 72.6136 61.294 71.9375 61.294 71.142C61.294 70.3598 61.4316 69.6787 61.7067 69.0987C61.9818 68.5154 62.3646 68.0646 62.8551 67.7464C63.3456 67.425 63.9124 67.2642 64.5554 67.2642C65.0526 67.2642 65.447 67.3471 65.7386 67.5128C66.0336 67.6752 66.259 67.8608 66.4148 68.0696C66.5739 68.2751 66.6965 68.4441 66.7827 68.5767H66.902V67.3636H68.0355V75.2188C68.0355 75.875 67.8864 76.4086 67.5881 76.8196C67.2931 77.2339 66.8954 77.5372 66.3949 77.7294C65.8977 77.925 65.3442 78.0227 64.7344 78.0227ZM64.6946 73.8267C65.1652 73.8267 65.563 73.719 65.8878 73.5036C66.2126 73.2881 66.4595 72.9782 66.6286 72.5739C66.7976 72.1695 66.8821 71.6856 66.8821 71.1222C66.8821 70.572 66.7992 70.0864 66.6335 69.6655C66.4678 69.2446 66.2225 68.9148 65.8977 68.6761C65.5729 68.4375 65.1719 68.3182 64.6946 68.3182C64.1974 68.3182 63.7831 68.4441 63.4517 68.696C63.1236 68.9479 62.8767 69.286 62.7109 69.7102C62.5485 70.1345 62.4673 70.6051 62.4673 71.1222C62.4673 71.6525 62.5502 72.1214 62.7159 72.5291C62.8849 72.9335 63.1335 73.2517 63.4616 73.4837C63.7931 73.7124 64.2041 73.8267 64.6946 73.8267ZM70.9389 77.8636C70.7401 77.8636 70.5627 77.8471 70.407 77.8139C70.2512 77.7841 70.1435 77.7543 70.0838 77.7244L70.3821 76.6903C70.6671 76.7633 70.919 76.7898 71.1378 76.7699C71.3565 76.75 71.5504 76.6522 71.7195 76.4766C71.8918 76.3042 72.0492 76.0241 72.1918 75.6364L72.4105 75.0398L69.5866 67.3636H70.8594L72.9673 73.4489H73.0469L75.1548 67.3636H76.4276L73.1861 76.1136C73.0402 76.508 72.8596 76.8345 72.6442 77.093C72.4287 77.3549 72.1785 77.5488 71.8935 77.6747C71.6117 77.8007 71.2936 77.8636 70.9389 77.8636ZM87.641 67.3636C87.5813 66.8598 87.3394 66.4688 86.9151 66.1903C86.4909 65.9119 85.9705 65.7727 85.354 65.7727C84.9033 65.7727 84.5089 65.8456 84.1708 65.9915C83.8361 66.1373 83.5742 66.3378 83.3853 66.593C83.1997 66.8482 83.1069 67.1383 83.1069 67.4631C83.1069 67.7348 83.1715 67.9685 83.3008 68.1641C83.4334 68.3563 83.6024 68.517 83.8079 68.6463C84.0134 68.7723 84.2288 68.8767 84.4542 68.9595C84.6796 69.0391 84.8867 69.1037 85.0756 69.1534L86.1097 69.4318C86.3749 69.5014 86.6699 69.5975 86.9947 69.7202C87.3228 69.8428 87.636 70.0102 87.9343 70.2223C88.2359 70.4311 88.4845 70.6996 88.68 71.0277C88.8756 71.3558 88.9734 71.7585 88.9734 72.2358C88.9734 72.786 88.8292 73.2831 88.5408 73.7273C88.2558 74.1714 87.8382 74.5244 87.288 74.7862C86.7411 75.0481 86.0766 75.179 85.2944 75.179C84.5652 75.179 83.9338 75.0613 83.4002 74.826C82.8699 74.5907 82.4523 74.2625 82.1474 73.8416C81.8458 73.4207 81.6751 72.9318 81.6353 72.375H82.908C82.9412 72.7595 83.0704 73.0777 83.2958 73.3295C83.5245 73.5781 83.8129 73.7637 84.1609 73.8864C84.5122 74.0057 84.89 74.0653 85.2944 74.0653C85.765 74.0653 86.1876 73.9891 86.5621 73.8366C86.9367 73.6809 87.2333 73.4654 87.4521 73.1903C87.6708 72.9119 87.7802 72.5871 87.7802 72.2159C87.7802 71.8778 87.6857 71.6027 87.4968 71.3906C87.3079 71.1785 87.0593 71.0062 86.7511 70.8736C86.4428 70.741 86.1097 70.625 85.7518 70.5256L84.4989 70.1676C83.7035 69.9389 83.0737 69.6125 82.6097 69.1882C82.1457 68.764 81.9137 68.2088 81.9137 67.5227C81.9137 66.9527 82.0678 66.4555 82.3761 66.0312C82.6876 65.6037 83.1052 65.2723 83.6289 65.0369C84.1559 64.7983 84.7442 64.679 85.3938 64.679C86.0501 64.679 86.6334 64.7966 87.1438 65.032C87.6542 65.264 88.0586 65.5821 88.3569 65.9865C88.6585 66.3909 88.8176 66.8499 88.8342 67.3636H87.641ZM94.0431 75.1591C93.3074 75.1591 92.6726 74.9967 92.139 74.6719C91.6087 74.3438 91.1994 73.8864 90.911 73.2997C90.626 72.7098 90.4835 72.0237 90.4835 71.2415C90.4835 70.4593 90.626 69.7699 90.911 69.1733C91.1994 68.5734 91.6004 68.1061 92.1142 67.7713C92.6312 67.4332 93.2344 67.2642 93.9238 67.2642C94.3216 67.2642 94.7143 67.3305 95.1021 67.4631C95.4899 67.5956 95.8429 67.8111 96.161 68.1094C96.4792 68.4044 96.7328 68.7955 96.9217 69.2827C97.1106 69.7699 97.2051 70.3698 97.2051 71.0824V71.5795H91.3187V70.5653H96.0119C96.0119 70.1345 95.9257 69.75 95.7534 69.4119C95.5843 69.0739 95.3424 68.8071 95.0275 68.6115C94.716 68.416 94.3481 68.3182 93.9238 68.3182C93.4565 68.3182 93.0521 68.4342 92.7108 68.6662C92.3727 68.8949 92.1125 69.1932 91.9302 69.5611C91.7479 69.929 91.6568 70.3234 91.6568 70.7443V71.4205C91.6568 71.9972 91.7562 72.486 91.9551 72.8871C92.1573 73.2848 92.4373 73.5881 92.7953 73.7969C93.1532 74.0024 93.5692 74.1051 94.0431 74.1051C94.3514 74.1051 94.6298 74.062 94.8784 73.9759C95.1303 73.8864 95.3474 73.7538 95.5297 73.5781C95.7119 73.3991 95.8528 73.1771 95.9522 72.9119L97.0858 73.2301C96.9664 73.6146 96.7659 73.9527 96.4842 74.2443C96.2025 74.5327 95.8545 74.758 95.4402 74.9205C95.0259 75.0795 94.5602 75.1591 94.0431 75.1591ZM98.9899 75V67.3636H100.123V68.517H100.203C100.342 68.1392 100.594 67.8326 100.959 67.5973C101.323 67.362 101.734 67.2443 102.192 67.2443C102.278 67.2443 102.385 67.246 102.515 67.2493C102.644 67.2526 102.742 67.2576 102.808 67.2642V68.4574C102.768 68.4474 102.677 68.4325 102.535 68.4126C102.395 68.3894 102.248 68.3778 102.092 68.3778C101.721 68.3778 101.39 68.4557 101.098 68.6115C100.809 68.764 100.581 68.9761 100.412 69.2479C100.246 69.5163 100.163 69.8229 100.163 70.1676V75H98.9899ZM110.676 67.3636L107.852 75H106.659L103.835 67.3636H105.107L107.215 73.4489H107.295L109.403 67.3636H110.676ZM112.224 75V67.3636H113.398V75H112.224ZM112.821 66.0909C112.592 66.0909 112.395 66.013 112.229 65.8572C112.067 65.7015 111.986 65.5142 111.986 65.2955C111.986 65.0767 112.067 64.8894 112.229 64.7337C112.395 64.5779 112.592 64.5 112.821 64.5C113.05 64.5 113.245 64.5779 113.407 64.7337C113.573 64.8894 113.656 65.0767 113.656 65.2955C113.656 65.5142 113.573 65.7015 113.407 65.8572C113.245 66.013 113.05 66.0909 112.821 66.0909ZM118.649 75.1591C117.933 75.1591 117.316 74.9901 116.799 74.652C116.282 74.3139 115.885 73.8482 115.606 73.255C115.328 72.6617 115.189 71.9839 115.189 71.2216C115.189 70.446 115.331 69.7616 115.616 69.1683C115.904 68.5717 116.306 68.1061 116.819 67.7713C117.336 67.4332 117.94 67.2642 118.629 67.2642C119.166 67.2642 119.65 67.3636 120.081 67.5625C120.511 67.7614 120.864 68.0398 121.14 68.3977C121.415 68.7557 121.585 69.1733 121.652 69.6506H120.478C120.389 69.3026 120.19 68.9943 119.882 68.7259C119.577 68.4541 119.166 68.3182 118.649 68.3182C118.191 68.3182 117.79 68.4375 117.446 68.6761C117.104 68.9115 116.837 69.2446 116.645 69.6754C116.456 70.103 116.362 70.6051 116.362 71.1818C116.362 71.7718 116.455 72.2855 116.64 72.723C116.829 73.1605 117.094 73.5002 117.436 73.7422C117.78 73.9841 118.185 74.1051 118.649 74.1051C118.954 74.1051 119.23 74.0521 119.479 73.946C119.728 73.84 119.938 73.6875 120.11 73.4886C120.283 73.2898 120.405 73.0511 120.478 72.7727H121.652C121.585 73.2235 121.421 73.6295 121.159 73.9908C120.901 74.3487 120.558 74.6338 120.13 74.8459C119.706 75.0547 119.212 75.1591 118.649 75.1591ZM126.569 75.1591C125.833 75.1591 125.198 74.9967 124.664 74.6719C124.134 74.3438 123.725 73.8864 123.436 73.2997C123.151 72.7098 123.009 72.0237 123.009 71.2415C123.009 70.4593 123.151 69.7699 123.436 69.1733C123.725 68.5734 124.126 68.1061 124.64 67.7713C125.157 67.4332 125.76 67.2642 126.449 67.2642C126.847 67.2642 127.24 67.3305 127.627 67.4631C128.015 67.5956 128.368 67.8111 128.686 68.1094C129.005 68.4044 129.258 68.7955 129.447 69.2827C129.636 69.7699 129.73 70.3698 129.73 71.0824V71.5795H123.844V70.5653H128.537C128.537 70.1345 128.451 69.75 128.279 69.4119C128.11 69.0739 127.868 68.8071 127.553 68.6115C127.241 68.416 126.873 68.3182 126.449 68.3182C125.982 68.3182 125.578 68.4342 125.236 68.6662C124.898 68.8949 124.638 69.1932 124.456 69.5611C124.273 69.929 124.182 70.3234 124.182 70.7443V71.4205C124.182 71.9972 124.282 72.486 124.48 72.8871C124.683 73.2848 124.963 73.5881 125.321 73.7969C125.679 74.0024 126.095 74.1051 126.569 74.1051C126.877 74.1051 127.155 74.062 127.404 73.9759C127.656 73.8864 127.873 73.7538 128.055 73.5781C128.237 73.3991 128.378 73.1771 128.478 72.9119L129.611 73.2301C129.492 73.6146 129.291 73.9527 129.01 74.2443C128.728 74.5327 128.38 74.758 127.966 74.9205C127.551 75.0795 127.086 75.1591 126.569 75.1591ZM136.924 69.0739L135.87 69.3722C135.804 69.1965 135.706 69.0258 135.577 68.8601C135.451 68.6911 135.279 68.5518 135.06 68.4425C134.841 68.3331 134.561 68.2784 134.22 68.2784C133.752 68.2784 133.363 68.3861 133.051 68.6016C132.743 68.8137 132.589 69.0838 132.589 69.4119C132.589 69.7036 132.695 69.9339 132.907 70.103C133.119 70.272 133.451 70.4129 133.902 70.5256L135.035 70.804C135.718 70.9697 136.227 71.2232 136.561 71.5646C136.896 71.9027 137.064 72.3385 137.064 72.8722C137.064 73.3097 136.938 73.7008 136.686 74.0455C136.437 74.3902 136.089 74.6619 135.642 74.8608C135.194 75.0597 134.674 75.1591 134.081 75.1591C133.302 75.1591 132.657 74.9901 132.147 74.652C131.636 74.3139 131.313 73.8201 131.177 73.1705L132.291 72.892C132.397 73.303 132.597 73.6113 132.892 73.8168C133.191 74.0223 133.58 74.125 134.061 74.125C134.608 74.125 135.042 74.009 135.363 73.777C135.688 73.5417 135.85 73.2599 135.85 72.9318C135.85 72.6667 135.758 72.4446 135.572 72.2656C135.386 72.0833 135.101 71.9474 134.717 71.858L133.444 71.5597C132.745 71.3939 132.231 71.1371 131.903 70.7891C131.578 70.4377 131.416 69.9986 131.416 69.4716C131.416 69.0407 131.537 68.6596 131.779 68.3281C132.024 67.9967 132.357 67.7365 132.778 67.5476C133.202 67.3587 133.683 67.2642 134.22 67.2642C134.975 67.2642 135.569 67.4299 136 67.7614C136.434 68.0928 136.742 68.5303 136.924 69.0739Z" fill="#030712"/>
</svg>
